<svg width="24" height="31" viewBox="0 0 24 31" fill="none" xmlns="http://www.w3.org/2000/svg">
<path d="M23.9585 0.660248C23.9221 0.578895 23.863 0.509877 23.7882 0.461604C23.7134 0.413331 23.6262 0.387888 23.5373 0.388374H10.4995C10.4212 0.388504 10.3441 0.408313 10.2755 0.445984C10.2068 0.483655 10.1486 0.537986 10.1064 0.603998L0.0822939 16.5415C0.0340351 16.6109 0.00583936 16.6923 0.000813382 16.7767C-0.00421259 16.8611 0.0141262 16.9453 0.0538094 17.02C0.0934926 17.0946 0.15298 17.1568 0.225715 17.1998C0.298451 17.2427 0.381612 17.2647 0.466035 17.2634H7.6448L1.30839 29.6852C1.27201 29.7591 1.25491 29.841 1.25869 29.9233C1.26247 30.0056 1.287 30.0856 1.33 30.1558C1.37299 30.226 1.43305 30.2841 1.50456 30.3248C1.57607 30.3655 1.6567 30.3874 1.73893 30.3884H4.54679C4.61175 30.3888 4.67608 30.3757 4.7357 30.3499C4.79532 30.324 4.84892 30.2861 4.89309 30.2384L21.3378 12.4352C21.4031 12.3686 21.447 12.2839 21.4639 12.1921C21.4809 12.1003 21.47 12.0055 21.4328 11.9199C21.3956 11.8343 21.3337 11.7617 21.2551 11.7116C21.1765 11.6614 21.0847 11.6359 20.9915 11.6384H14.6832L23.8836 1.15712C23.9429 1.09054 23.9816 1.00809 23.9949 0.91985C24.0082 0.831611 23.9955 0.741404 23.9585 0.660248Z" fill="#2B788B"/>
</svg>
