<svg width="19" height="31" viewBox="0 0 19 31" fill="none" xmlns="http://www.w3.org/2000/svg">
<path d="M0.505983 3.61151C0.505983 2.78651 0.799482 2.08051 1.38648 1.49351C1.97448 0.905511 2.68098 0.611511 3.50598 0.611511L15.506 0.611511C16.331 0.611511 17.037 0.905511 17.624 1.49351C18.212 2.08051 18.506 2.78651 18.506 3.61151L18.506 27.6115C18.506 28.4365 18.212 29.143 17.624 29.731C17.037 30.318 16.331 30.6115 15.506 30.6115L3.50598 30.6115C2.68098 30.6115 1.97448 30.318 1.38648 29.731C0.799481 29.143 0.505982 28.4365 0.505982 27.6115L0.505983 3.61151ZM5.00598 9.61151C5.00598 10.0365 5.14998 10.393 5.43798 10.681C5.72498 10.968 6.08098 11.1115 6.50598 11.1115L8.00598 11.1115L8.00598 12.6115C8.00598 13.0365 8.14998 13.393 8.43798 13.681C8.72498 13.968 9.08098 14.1115 9.50598 14.1115C9.93098 14.1115 10.2875 13.968 10.5755 13.681C10.8625 13.393 11.006 13.0365 11.006 12.6115L11.006 11.1115L12.506 11.1115C12.931 11.1115 13.2875 10.968 13.5755 10.681C13.8625 10.393 14.006 10.0365 14.006 9.61151C14.006 9.18651 13.8625 8.83001 13.5755 8.54201C13.2875 8.25501 12.931 8.11151 12.506 8.11151L11.006 8.11151L11.006 6.61151C11.006 6.18651 10.8625 5.83001 10.5755 5.54201C10.2875 5.25501 9.93098 5.11151 9.50598 5.11151C9.08098 5.11151 8.72498 5.25501 8.43798 5.54201C8.14998 5.83001 8.00598 6.18651 8.00598 6.61151L8.00598 8.11151L6.50598 8.11151C6.08098 8.11151 5.72498 8.25501 5.43798 8.54201C5.14998 8.83001 5.00598 9.18651 5.00598 9.61151ZM5.00598 19.3615C5.00598 19.9865 5.22498 20.5175 5.66298 20.9545C6.09998 21.3925 6.63098 21.6115 7.25598 21.6115C7.88098 21.6115 8.41198 21.3925 8.84898 20.9545C9.28698 20.5175 9.50598 19.9865 9.50598 19.3615C9.50598 18.7365 9.28698 18.2055 8.84898 17.7685C8.41198 17.3305 7.88098 17.1115 7.25598 17.1115C6.63098 17.1115 6.09998 17.3305 5.66298 17.7685C5.22498 18.2055 5.00598 18.7365 5.00598 19.3615ZM9.50598 23.8615C9.50598 24.4865 9.72498 25.0175 10.163 25.4545C10.6 25.8925 11.131 26.1115 11.756 26.1115C12.381 26.1115 12.912 25.8925 13.349 25.4545C13.787 25.0175 14.006 24.4865 14.006 23.8615C14.006 23.2365 13.787 22.7055 13.349 22.2685C12.912 21.8305 12.381 21.6115 11.756 21.6115C11.131 21.6115 10.6 21.8305 10.163 22.2685C9.72498 22.7055 9.50598 23.2365 9.50598 23.8615Z" fill="#2B788B"/>
</svg>
