<svg width="26" height="20" viewBox="0 0 26 20" fill="none" xmlns="http://www.w3.org/2000/svg">
<path d="M10.2615 13.7617C10.2615 14.8432 9.69812 16.613 8.36456 16.613C7.031 16.613 6.4676 14.8432 6.4676 13.7617C6.4676 12.6801 7.031 10.9104 8.36456 10.9104C9.69812 10.9104 10.2615 12.6801 10.2615 13.7617ZM25.4527 11.1484C25.4527 12.7992 25.2873 14.5483 24.5482 16.0645C22.5892 20.0284 17.2033 19.9352 13.3473 19.9352C9.42934 19.9352 3.72295 20.0749 1.68644 16.0645C0.931788 14.5638 0.642334 12.7992 0.642334 11.1484C0.642334 8.98016 1.3608 6.93093 2.7874 5.26982C2.51862 4.4522 2.3894 3.59318 2.3894 2.74452C2.3894 1.63193 2.64267 1.07305 3.14405 0.0639648C5.48552 0.0639648 6.98448 0.529698 8.76773 1.9269C10.2667 1.56983 11.807 1.40941 13.3525 1.40941C14.7481 1.40941 16.154 1.55948 17.5082 1.8855C19.2656 0.503823 20.7646 0.0639648 23.0802 0.0639648C23.5868 1.07305 23.8349 1.63193 23.8349 2.74452C23.8349 3.59318 23.7005 4.43668 23.4369 5.23877C24.8583 6.91541 25.4527 8.98016 25.4527 11.1484ZM22.1291 13.7617C22.1291 11.4899 20.7491 9.48729 18.3301 9.48729C17.3531 9.48729 16.4176 9.66323 15.4355 9.79778C14.6654 9.9168 13.8952 9.96337 13.1044 9.96337C12.3187 9.96337 11.5486 9.9168 10.7732 9.79778C9.80666 9.66323 8.86077 9.48729 7.87869 9.48729C5.45968 9.48729 4.0796 11.4899 4.0796 13.7617C4.0796 18.3052 8.23534 19.0038 11.8535 19.0038H14.3449C17.9786 19.0038 22.1291 18.3103 22.1291 13.7617ZM17.8597 10.9104C16.5261 10.9104 15.9627 12.6801 15.9627 13.7617C15.9627 14.8432 16.5261 16.613 17.8597 16.613C19.1933 16.613 19.7567 14.8432 19.7567 13.7617C19.7567 12.6801 19.1933 10.9104 17.8597 10.9104Z" fill="#BABABA"/>
</svg>
