<svg width="28" height="20" viewBox="0 0 28 20" fill="none" xmlns="http://www.w3.org/2000/svg">
<path d="M7.75588 11.4868H15.6924V19.1817H12.4211L12.0308 15.8918C11.6591 17.069 10.9962 17.9426 10.042 18.5126C9.08793 19.0825 7.92316 19.3675 6.54774 19.3675C5.29623 19.3675 4.18103 19.0887 3.20213 18.5311C2.23562 17.9735 1.47356 17.1743 0.915961 16.1335C0.37075 15.0926 0.0981445 13.8783 0.0981445 12.4905C0.0981445 10.2724 0.761071 8.51908 2.08692 7.23041C3.41278 5.94173 5.47591 5.29739 8.27631 5.29739C9.87477 5.29739 11.2812 5.5576 12.4955 6.07803C13.7222 6.59846 14.7631 7.40388 15.6181 8.4943C15.0605 8.7793 13.97 9.34929 12.3468 10.2043L11.8821 10.4645C11.3989 9.98124 10.8351 9.6219 10.1907 9.38647C9.5464 9.13864 8.86489 9.01473 8.1462 9.01473C6.95665 9.01473 6.07068 9.3307 5.4883 9.96265C4.90591 10.5822 4.61472 11.3505 4.61472 12.2674C4.61472 13.2587 4.9245 14.0579 5.54406 14.6651C6.17601 15.2723 7.13632 15.5758 8.425 15.5758C8.9826 15.5758 9.52162 15.4953 10.042 15.3342C10.5749 15.1731 11.0209 14.8943 11.3803 14.4978H7.75588V11.4868Z" fill="#BABABA"/>
<path d="M27.9968 4.53627C26.0514 4.47432 24.1618 4.43714 22.3279 4.42475V14.127H17.6812V4.42475C15.8349 4.43714 13.9515 4.47432 12.0308 4.53627V0.633059H27.9968V4.53627Z" fill="#BABABA"/>
</svg>
