<svg width="26" height="18" viewBox="0 0 26 18" fill="none" xmlns="http://www.w3.org/2000/svg">
<path fill-rule="evenodd" clip-rule="evenodd" d="M22.7748 0.684539C23.873 0.998319 24.6575 1.78277 24.9713 2.88101C25.5988 4.92058 25.5988 8.99973 25.5988 8.99973C25.5988 8.99973 25.5988 13.0789 25.1282 15.1185C24.8144 16.2167 24.0299 17.0011 22.9317 17.3149C20.8921 17.7856 13.0476 17.7856 13.0476 17.7856C13.0476 17.7856 5.04616 17.7856 3.16347 17.3149C2.06524 17.0011 1.28079 16.2167 0.967014 15.1185C0.496342 13.0789 0.496338 8.99973 0.496338 8.99973C0.496338 8.99973 0.496333 4.92058 0.810114 2.88101C1.12389 1.78277 1.90836 0.998319 3.00659 0.684539C5.04617 0.213867 12.8907 0.213867 12.8907 0.213867C12.8907 0.213867 20.8921 0.213867 22.7748 0.684539ZM10.5373 5.92363C10.5373 5.6165 10.8691 5.42396 11.1358 5.57633L16.519 8.65243C16.7877 8.80599 16.7877 9.19347 16.519 9.34703L11.1358 12.4231C10.8691 12.5755 10.5373 12.383 10.5373 12.0758V5.92363Z" fill="#BABABA"/>
</svg>
